<?xml version="1.0" encoding="utf-8"?>
<!-- Generator: Adobe Illustrator 22.0.1, SVG Export Plug-In . SVG Version: 6.00 Build 0)  -->
<svg version="1.1" id="Layer_3" xmlns="http://www.w3.org/2000/svg" xmlns:xlink="http://www.w3.org/1999/xlink" x="0px" y="0px"
	 viewBox="0 0 64 64" style="enable-background:new 0 0 64 64;" xml:space="preserve">
<style type="text/css">
	.st0{fill:#FAF5F5;}
	.st1{fill:#63312D;}
	.st2{fill:#F9A287;}
	.st3{fill:#FCB7A4;}
	.st4{fill:#DB785A;}
	.st5{fill:#E0E0E0;}
	.st6{fill:#84DBFF;}
	.st7{fill:#EFC36A;}
	.st8{fill:#F9DD9D;}
	.st9{fill:#EEC26A;}
	.st10{fill:#A9EBFF;}
	.st11{fill:#52BADB;}
	.st12{fill:#FFFFFF;}
	.st13{fill:#F0EEEE;}
	.st14{fill:#BDBDBD;}
	.st15{fill:#E3DFDF;}
	.st16{fill:#FFE8BB;}
	.st17{fill:#FFF2D2;}
	.st18{fill:#D8C18F;}
	.st19{fill:#EAD194;}
	.st20{fill:#BFA064;}
	.st21{fill:#CCCCCC;}
	.st22{fill:#C5F1FF;}
	.st23{fill:#D3A553;}
	.st24{fill:#67C7E5;}
</style>
<g>
	<path class="st8" d="M30.315,4.39c-4.182,0.099-8.324,1.276-11.841,3.691c-6.31,4.331-9.088,11.806-9.592,19.21l-5.545,8.586
		c-0.623,0.965,0.07,2.238,1.219,2.238h3.199v10.443c0,2.487,2.016,4.502,4.502,4.502H23.54v6.558h18.04c0,0,0-11.565,0-11.581
		c0-0.183,2.476-1.606,2.695-1.778c8.819-6.923,12.393-20.943,6.86-30.946C47.133,8.078,38.335,4.201,30.315,4.39z"/>
	<path class="st16" d="M9.629,50.059c0,0.99,0.33,1.91,0.87,2.65c-1.61-0.7-2.74-2.29-2.74-4.15v-8.94h1.87V50.059z"/>
	<rect x="23.539" y="54.559" class="st16" width="1.88" height="5.06"/>
	<path class="st16" d="M47.229,10.439c-0.02-0.01-0.04-0.03-0.06-0.04c-4.32-3.06-9.81-4.63-14.98-4.51
		c-0.35,0.01-0.7,0.02-1.05,0.05c-3.82,0.26-7.57,1.43-10.79,3.64c-6.31,4.33-9.09,11.81-9.59,19.21l-5.55,8.59
		c-0.15,0.24-0.22,0.49-0.23,0.74h-0.42c-1.15,0-1.85-1.28-1.22-2.24l5.54-8.59c0.51-7.4,3.28-14.88,9.59-19.21
		c3.52-2.41,7.66-3.59,11.85-3.69c0.27-0.01,0.54-0.01,0.82-0.01c0.24,0,0.49,0.01,0.73,0.02c0.13,0,0.26,0.01,0.39,0.02
		c0.27,0.01,0.54,0.03,0.81,0.06c0.34,0.03,0.67,0.07,1.01,0.11c0.07,0.01,0.13,0.02,0.2,0.03c0.33,0.04,0.65,0.09,0.98,0.15
		c0,0,0.01,0,0.02,0c0.33,0.06,0.67,0.13,1,0.2c0.03,0.01,0.05,0.01,0.08,0.02c0.37,0.08,0.73,0.17,1.09,0.27
		c0.28,0.07,0.56,0.15,0.84,0.24c0.18,0.05,0.35,0.11,0.52,0.16c0.19,0.07,0.39,0.13,0.59,0.21c0.79,0.27,1.56,0.59,2.31,0.95
		c0.3,0.14,0.61,0.29,0.9,0.44c1.2,0.63,2.35,1.36,3.41,2.18c0.31,0.23,0.61,0.48,0.9,0.74
		C47.029,10.259,47.129,10.349,47.229,10.439z"/>
	<path class="st6" d="M44.279,46.259c-0.22,0.17-2.7,1.59-2.7,1.78c0,0.01,0,11.58,0,11.58h-10.44v-22.8h5.5v-14.12h-5.5V4.379
		c7.8,0.09,16.12,3.95,20,10.93C56.669,25.319,53.089,39.339,44.279,46.259z"/>
	<path class="st10" d="M47.169,10.399c-4.32-3.06-9.81-4.63-14.98-4.51c-0.35,0.01-0.7,0.02-1.05,0.05v-1.56
		c0.24,0,0.49,0.01,0.73,0.02c0.13,0,0.26,0.01,0.39,0.02c0.27,0.01,0.54,0.03,0.81,0.06c0.34,0.03,0.67,0.07,1.01,0.11
		c0.07,0.01,0.13,0.02,0.2,0.03c0.33,0.04,0.65,0.09,0.98,0.15c0,0,0.01,0,0.02,0c0.33,0.06,0.67,0.13,1,0.2
		c0.03,0.01,0.05,0.01,0.08,0.02c0.37,0.08,0.73,0.17,1.09,0.27c0.28,0.07,0.56,0.15,0.84,0.24c0.18,0.05,0.35,0.11,0.52,0.16
		c0.19,0.07,0.39,0.13,0.59,0.21c0.79,0.27,1.56,0.59,2.31,0.95c0.3,0.14,0.61,0.29,0.9,0.44c1.2,0.63,2.35,1.36,3.41,2.18
		c0.31,0.24,0.61,0.48,0.9,0.74C47.009,10.249,47.089,10.319,47.169,10.399z"/>
	<path class="st1" d="M41.58,60.118H23.54c-0.276,0-0.5-0.224-0.5-0.5V53.56H12.257c-2.759,0-5.003-2.244-5.003-5.002v-9.943H4.556
		c-0.726,0-1.367-0.381-1.713-1.018c-0.347-0.638-0.319-1.382,0.075-1.991l5.476-8.479c0.616-8.636,4.093-15.542,9.798-19.458
		c3.447-2.367,7.635-3.674,12.112-3.779l0,0C39.22,3.677,47.757,8.175,51.572,15.07c5.456,9.863,2.256,24.326-6.988,31.582
		c-0.073,0.058-0.386,0.251-0.781,0.491c-0.471,0.287-1.39,0.846-1.723,1.096v11.379C42.08,59.895,41.856,60.118,41.58,60.118z
		 M24.04,59.118h17.04V48.036c0-0.36,0.123-0.48,2.203-1.747c0.338-0.205,0.608-0.368,0.686-0.426
		c8.879-6.969,11.961-20.85,6.729-30.309C46.494,7.955,37.442,4.726,30.326,4.89l0,0c-4.283,0.101-8.283,1.347-11.569,3.604
		c-7.389,5.072-9.046,13.976-9.375,18.831c-0.006,0.084-0.033,0.166-0.079,0.237l-5.545,8.587c-0.192,0.297-0.206,0.659-0.037,0.97
		c0.169,0.311,0.481,0.496,0.835,0.496h3.199c0.276,0,0.5,0.224,0.5,0.5v10.443c0,2.207,1.796,4.002,4.003,4.002H23.54
		c0.276,0,0.5,0.224,0.5,0.5V59.118z"/>
	<path class="st11" d="M58.294,15.313c-4.002-7.235-12.8-11.112-20.82-10.922h-7.159c8.02-0.189,16.818,3.687,20.82,10.922
		c5.533,10.003,1.959,24.023-6.86,30.946c-0.219,0.172-2.695,1.595-2.695,1.778c0,0.016,0,11.581,0,11.581h7.159
		c0,0,0-11.565,0-11.581c0-0.183,2.476-1.606,2.695-1.778C60.253,39.336,63.827,25.315,58.294,15.313z"/>
	<path class="st1" d="M48.739,60.118H41.58c-0.276,0-0.5-0.224-0.5-0.5V48.036c0-0.36,0.123-0.48,2.203-1.747
		c0.338-0.205,0.608-0.368,0.686-0.426c8.879-6.969,11.961-20.85,6.729-30.309C46.701,8.329,38.316,5.051,31.388,4.89h-1.074
		c-0.274,0-0.497-0.221-0.5-0.494s0.214-0.499,0.488-0.506c0.397-0.011,0.794-0.011,1.189,0h5.982
		c8.889-0.214,17.443,4.284,21.258,11.181l0,0c5.456,9.863,2.255,24.325-6.989,31.582c-0.073,0.058-0.386,0.251-0.781,0.491
		c-0.471,0.287-1.39,0.846-1.723,1.096v11.379C49.239,59.895,49.015,60.118,48.739,60.118z M42.08,59.118h6.159V48.036
		c0-0.36,0.123-0.48,2.203-1.747c0.338-0.205,0.608-0.368,0.686-0.426c8.879-6.969,11.962-20.85,6.729-30.309l0,0
		c-4.1-7.412-12.816-10.67-19.842-10.671c5.847,1.672,10.873,5.334,13.557,10.187c5.456,9.863,2.256,24.326-6.988,31.582
		c-0.073,0.058-0.386,0.251-0.781,0.491c-0.471,0.287-1.39,0.846-1.723,1.096V59.118z"/>
	<rect x="31.139" y="16.057" class="st1" width="9.489" height="1"/>
	<rect x="37.077" y="13.724" class="st1" width="1" height="2.833"/>
	<path class="st1" d="M41.526,26.386h-4.887v-1h4.387v-1.644c0-0.276,0.224-0.5,0.5-0.5h6.306v1h-5.806v1.644
		C42.026,26.162,41.802,26.386,41.526,26.386z"/>
	<path class="st1" d="M44.957,29.68h-3.431c-0.276,0-0.5-0.224-0.5-0.5v-3.294h1v2.794h2.931V29.68z"/>
	<path class="st1" d="M31.639,59.619h-1v-22.8c0-0.276,0.224-0.5,0.5-0.5h5v-13.12h-5c-0.276,0-0.5-0.224-0.5-0.5V4.379h1v17.82h5
		c0.276,0,0.5,0.224,0.5,0.5v14.12c0,0.276-0.224,0.5-0.5,0.5h-5V59.619z"/>
	<circle class="st12" cx="37.577" cy="12.223" r="1.5"/>
	<circle class="st12" cx="42.129" cy="16.557" r="1.5"/>
	<circle class="st12" cx="49.332" cy="23.742" r="1.5"/>
	<circle class="st12" cx="46.457" cy="29.18" r="1.5"/>
	<path class="st1" d="M37.577,14.224c-1.103,0-2-0.897-2-2s0.897-2,2-2s2,0.897,2,2S38.679,14.224,37.577,14.224z M37.577,11.224
		c-0.552,0-1,0.448-1,1s0.448,1,1,1s1-0.448,1-1S38.129,11.224,37.577,11.224z"/>
	<path class="st1" d="M42.129,18.557c-1.103,0-2-0.897-2-2s0.897-2,2-2s2,0.897,2,2S43.231,18.557,42.129,18.557z M42.129,15.557
		c-0.552,0-1,0.448-1,1s0.448,1,1,1s1-0.448,1-1S42.68,15.557,42.129,15.557z"/>
	<path class="st1" d="M49.332,25.742c-1.103,0-2-0.897-2-2s0.897-2,2-2s2,0.897,2,2S50.434,25.742,49.332,25.742z M49.332,22.742
		c-0.552,0-1,0.448-1,1s0.448,1,1,1s1-0.448,1-1S49.883,22.742,49.332,22.742z"/>
	<path class="st1" d="M46.457,31.18c-1.103,0-2-0.897-2-2s0.897-2,2-2s2,0.897,2,2S47.559,31.18,46.457,31.18z M46.457,28.18
		c-0.552,0-1,0.448-1,1s0.448,1,1,1s1-0.448,1-1S47.008,28.18,46.457,28.18z"/>
</g>
</svg>
